INFO:     Will watch for changes in these directories: ['/Users/jay/CodeLab/video_com_player/backend']
INFO:     Uvicorn running on http://0.0.0.0:8000 (Press CTRL+C to quit)
INFO:     Started reloader process [54744] using StatReload
INFO:     Started server process [54747]
INFO:     Waiting for application startup.
INFO:     Application startup complete.
INFO:     127.0.0.1:49727 - "POST /stream HTTP/1.1" 200 OK
ffmpeg version 6.0 Copyright (c) 2000-2023 the FFmpeg developers
  built with Apple clang version 14.0.3 (clang-1403.0.22.14.1)
  configuration: --prefix=/opt/homebrew/Cellar/ffmpeg/6.0 --enable-shared --enable-pthreads --enable-version3 --cc=clang --host-cflags= --host-ldflags= --enable-ffplay --enable-gnutls --enable-gpl --enable-libaom --enable-libaribb24 --enable-libbluray --enable-libdav1d --enable-libmp3lame --enable-libopus --enable-librav1e --enable-librist --enable-librubberband --enable-libsnappy --enable-libsrt --enable-libsvtav1 --enable-libtesseract --enable-libtheora --enable-libvidstab --enable-libvmaf --enable-libvorbis --enable-libvpx --enable-libwebp --enable-libx264 --enable-libx265 --enable-libxml2 --enable-libxvid --enable-lzma --enable-libfontconfig --enable-libfreetype --enable-frei0r --enable-libass --enable-libopencore-amrnb --enable-libopencore-amrwb --enable-libopenjpeg --enable-libspeex --enable-libsoxr --enable-libzmq --enable-libzimg --disable-libjack --disable-indev=jack --enable-videotoolbox --enable-neon
  libavutil      58.  2.100 / 58.  2.100
  libavcodec     60.  3.100 / 60.  3.100
  libavformat    60.  3.100 / 60.  3.100
  libavdevice    60.  1.100 / 60.  1.100
  libavfilter     9.  3.100 /  9.  3.100
  libswscale      7.  1.100 /  7.  1.100
  libswresample   4. 10.100 /  4. 10.100
  libpostproc    57.  1.100 / 57.  1.100
Input #0, rawvideo, from 'pipe:':
  Duration: N/A, start: 0.000000, bitrate: 663552 kb/s
  Stream #0:0: Video: rawvideo (RGB[24] / 0x18424752), rgb24, 1280x720, 663552 kb/s, 30 tbr, 30 tbn
Stream mapping:
  Stream #0:0 -> #0:0 (rawvideo (native) -> h264 (libx264))
[libx264 @ 0x113605db0] using cpu capabilities: ARMv8 NEON
[libx264 @ 0x113605db0] profile High, level 3.1, 4:2:0, 8-bit
Output #0, mpegts, to 'pipe:':
  Metadata:
    encoder         : Lavf60.3.100
  Stream #0:0: Video: h264, yuv420p(tv, progressive), 1280x720, q=2-31, 30 fps, 90k tbn
    Metadata:
      encoder         : Lavc60.3.100 libx264
    Side data:
      cpb: bitrate max/min/avg: 0/0/0 buffer size: 0 vbv_delay: N/A
frame=    0 fps=0.0 q=0.0 size=       0kB time=-577014:32:22.77 bitrate=  -0.0kbits/s speed=N/A    WARNING:  StatReload detected changes in 'main.py'. Reloading...
av_interleaved_write_frame(): Broken pipe
[out#0/mpegts @ 0x113604c10] Error muxing a packet
[out#0/mpegts @ 0x113604c10] Error writing trailer: Broken pipe
frame=    1 fps=0.0 q=-1.0 Lsize=       0kB time=00:00:00.43 bitrate=   0.0kbits/s speed=0.00068x    
video:47kB audio:0kB subtitle:0kB other streams:0kB global headers:0kB muxing overhead: unknown
[libx264 @ 0x113605db0] frame I:1     Avg QP:32.86  size: 47762
[libx264 @ 0x113605db0] frame P:6     Avg QP:32.60  size: 46218
[libx264 @ 0x113605db0] frame B:9     Avg QP:33.55  size: 55598
[libx264 @ 0x113605db0] consecutive B-frames: 25.0%  0.0%  0.0% 75.0%
[libx264 @ 0x113605db0] mb I  I16..4: 12.7% 29.2% 58.1%
[libx264 @ 0x113605db0] mb P  I16..4: 10.7% 18.3% 57.5%  P16..4:  8.3%  4.0%  1.1%  0.0%  0.0%    skip: 0.0%
[libx264 @ 0x113605db0] mb B  I16..4:  9.2%  5.5% 30.6%  B16..8: 18.6% 18.9%  5.3%  direct:11.7%  skip: 0.3%  L0:37.9% L1:39.2% BI:22.8%
[libx264 @ 0x113605db0] 8x8 transform intra:18.4% inter:97.5%
[libx264 @ 0x113605db0] coded y,uvDC,uvAC intra: 86.5% 25.7% 7.3% inter: 95.6% 75.4% 0.6%
[libx264 @ 0x113605db0] i16 v,h,dc,p:  0% 100%  0%  0%
[libx264 @ 0x113605db0] i8 v,h,dc,ddl,ddr,vr,hd,vl,hu:  4% 85%  8%  1%  0%  0%  0%  1%  1%
[libx264 @ 0x113605db0] i4 v,h,dc,ddl,ddr,vr,hd,vl,hu:  0% 100%  0%  0%  0%  0%  0%  0%  0%
[libx264 @ 0x113605db0] i8c dc,h,v,p: 71% 16% 13%  0%
[libx264 @ 0x113605db0] Weighted P-Frames: Y:16.7% UV:16.7%
[libx264 @ 0x113605db0] ref P L0: 40.8% 22.1% 29.7%  6.0%  1.4%
[libx264 @ 0x113605db0] ref B L0: 68.1% 23.0%  8.9%
[libx264 @ 0x113605db0] ref B L1: 87.5% 12.5%
[libx264 @ 0x113605db0] kb/s:12381.73
Exiting normally, received signal 2.
